<svg width="157" height="158" viewBox="0 0 157 158" fill="none" xmlns="http://www.w3.org/2000/svg">
<path d="M90.752 35.4V125H70.656V114.12C64.512 122.397 55.4667 126.536 43.52 126.536C32.9387 126.536 24.6613 123.208 18.688 116.552C12.8 109.811 9.856 100.253 9.856 87.88V35.4H30.592V87.24C30.592 94.408 32.256 99.8267 35.584 103.496C38.9973 107.08 43.6053 108.872 49.408 108.872C55.6373 108.872 60.6293 106.952 64.384 103.112C68.1387 99.1867 70.016 93.4267 70.016 85.832V35.4H90.752Z" fill="#01226B"/>
<path d="M102.94 90.25L90.72 102.99V126H69.79V35H90.72V77.51L131.02 35H154.42L116.72 75.56L156.63 126H132.06L102.94 90.25Z" fill="#F58C04"/>
<circle cx="20.5" cy="45.5" r="5.5" fill="#F58C04"/>
<circle cx="80.5" cy="45.5" r="5.5" fill="#01226B"/>
<path d="M22.05 45.975C22.05 46.2483 21.95 46.4833 21.75 46.68C21.55 46.8733 21.2617 46.9933 20.885 47.04V47.6H20.385V47.055C20.1383 47.0417 19.9033 46.9983 19.68 46.925C19.4567 46.8517 19.2767 46.7617 19.14 46.655L19.415 46.045C19.5417 46.1383 19.69 46.2167 19.86 46.28C20.03 46.3433 20.205 46.3833 20.385 46.4V45.565C20.1483 45.5083 19.9483 45.445 19.785 45.375C19.6217 45.305 19.485 45.2033 19.375 45.07C19.265 44.9333 19.21 44.7533 19.21 44.53C19.21 44.2533 19.31 44.0167 19.51 43.82C19.7133 43.62 20.005 43.4983 20.385 43.455V42.9H20.885V43.445C21.295 43.4783 21.6333 43.58 21.9 43.75L21.65 44.365C21.4 44.2217 21.145 44.135 20.885 44.105V44.955C21.1183 45.0083 21.315 45.07 21.475 45.14C21.6383 45.2067 21.775 45.3083 21.885 45.445C21.995 45.5783 22.05 45.755 22.05 45.975ZM20.015 44.49C20.015 44.5733 20.0467 44.6417 20.11 44.695C20.1733 44.7483 20.265 44.7933 20.385 44.83V44.12C20.2583 44.15 20.165 44.1983 20.105 44.265C20.045 44.3283 20.015 44.4033 20.015 44.49ZM20.885 46.38C21.005 46.3533 21.095 46.31 21.155 46.25C21.215 46.19 21.245 46.1183 21.245 46.035C21.245 45.9517 21.2133 45.8833 21.15 45.83C21.09 45.7767 21.0017 45.73 20.885 45.69V46.38Z" fill="#EB2358"/>
<path d="M82.05 45.975C82.05 46.2483 81.95 46.4833 81.75 46.68C81.55 46.8733 81.2617 46.9933 80.885 47.04V47.6H80.385V47.055C80.1383 47.0417 79.9033 46.9983 79.68 46.925C79.4567 46.8517 79.2767 46.7617 79.14 46.655L79.415 46.045C79.5417 46.1383 79.69 46.2167 79.86 46.28C80.03 46.3433 80.205 46.3833 80.385 46.4V45.565C80.1483 45.5083 79.9483 45.445 79.785 45.375C79.6217 45.305 79.485 45.2033 79.375 45.07C79.265 44.9333 79.21 44.7533 79.21 44.53C79.21 44.2533 79.31 44.0167 79.51 43.82C79.7133 43.62 80.005 43.4983 80.385 43.455V42.9H80.885V43.445C81.295 43.4783 81.6333 43.58 81.9 43.75L81.65 44.365C81.4 44.2217 81.145 44.135 80.885 44.105V44.955C81.1183 45.0083 81.315 45.07 81.475 45.14C81.6383 45.2067 81.775 45.3083 81.885 45.445C81.995 45.5783 82.05 45.755 82.05 45.975ZM80.015 44.49C80.015 44.5733 80.0467 44.6417 80.11 44.695C80.1733 44.7483 80.265 44.7933 80.385 44.83V44.12C80.2583 44.15 80.165 44.1983 80.105 44.265C80.045 44.3283 80.015 44.4033 80.015 44.49ZM80.885 46.38C81.005 46.3533 81.095 46.31 81.155 46.25C81.215 46.19 81.245 46.1183 81.245 46.035C81.245 45.9517 81.2133 45.8833 81.15 45.83C81.09 45.7767 81.0017 45.73 80.885 45.69V46.38Z" fill="#EB2358"/>
</svg>
