<svg width="197" height="165" viewBox="0 0 197 165" fill="none" xmlns="http://www.w3.org/2000/svg">
<path d="M3.94 162.12C2.94667 162.12 2.17 161.843 1.61 161.29C1.05 160.737 0.77 159.947 0.77 158.92V155H2.39V158.86C2.39 159.527 2.52667 160.007 2.8 160.3C3.07333 160.593 3.45667 160.74 3.95 160.74C4.44333 160.74 4.82667 160.593 5.1 160.3C5.37333 160.007 5.51 159.527 5.51 158.86V155H7.11V158.92C7.11 159.947 6.83 160.737 6.27 161.29C5.71 161.843 4.93333 162.12 3.94 162.12ZM11.9009 162V160.95L11.8009 160.72V158.84C11.8009 158.507 11.6975 158.247 11.4909 158.06C11.2909 157.873 10.9809 157.78 10.5609 157.78C10.2742 157.78 9.99086 157.827 9.71086 157.92C9.43753 158.007 9.20419 158.127 9.01086 158.28L8.45086 157.19C8.74419 156.983 9.09753 156.823 9.51086 156.71C9.92419 156.597 10.3442 156.54 10.7709 156.54C11.5909 156.54 12.2275 156.733 12.6809 157.12C13.1342 157.507 13.3609 158.11 13.3609 158.93V162H11.9009ZM10.2609 162.08C9.84086 162.08 9.48086 162.01 9.18086 161.87C8.88086 161.723 8.65086 161.527 8.49086 161.28C8.33086 161.033 8.25086 160.757 8.25086 160.45C8.25086 160.13 8.32753 159.85 8.48086 159.61C8.64086 159.37 8.89086 159.183 9.23086 159.05C9.57086 158.91 10.0142 158.84 10.5609 158.84H11.9909V159.75H10.7309C10.3642 159.75 10.1109 159.81 9.97086 159.93C9.83753 160.05 9.77086 160.2 9.77086 160.38C9.77086 160.58 9.84753 160.74 10.0009 160.86C10.1609 160.973 10.3775 161.03 10.6509 161.03C10.9109 161.03 11.1442 160.97 11.3509 160.85C11.5575 160.723 11.7075 160.54 11.8009 160.3L12.0409 161.02C11.9275 161.367 11.7209 161.63 11.4209 161.81C11.1209 161.99 10.7342 162.08 10.2609 162.08ZM18.0427 156.54C18.4694 156.54 18.8494 156.627 19.1827 156.8C19.5227 156.967 19.7894 157.227 19.9827 157.58C20.1761 157.927 20.2727 158.373 20.2727 158.92V162H18.7127V159.16C18.7127 158.727 18.6161 158.407 18.4227 158.2C18.2361 157.993 17.9694 157.89 17.6227 157.89C17.3761 157.89 17.1527 157.943 16.9527 158.05C16.7594 158.15 16.6061 158.307 16.4927 158.52C16.3861 158.733 16.3327 159.007 16.3327 159.34V162H14.7727V156.62H16.2627V158.11L15.9827 157.66C16.1761 157.3 16.4527 157.023 16.8127 156.83C17.1727 156.637 17.5827 156.54 18.0427 156.54ZM24.2559 164.02C23.7492 164.02 23.2592 163.957 22.7859 163.83C22.3192 163.71 21.9292 163.527 21.6159 163.28L22.2359 162.16C22.4625 162.347 22.7492 162.493 23.0959 162.6C23.4492 162.713 23.7959 162.77 24.1359 162.77C24.6892 162.77 25.0892 162.647 25.3359 162.4C25.5892 162.153 25.7159 161.787 25.7159 161.3V160.49L25.8159 159.14L25.7959 157.78V156.62H27.2759V161.1C27.2759 162.1 27.0159 162.837 26.4959 163.31C25.9759 163.783 25.2292 164.02 24.2559 164.02ZM24.0159 161.74C23.5159 161.74 23.0625 161.633 22.6559 161.42C22.2559 161.2 21.9325 160.897 21.6859 160.51C21.4459 160.117 21.3259 159.66 21.3259 159.14C21.3259 158.613 21.4459 158.157 21.6859 157.77C21.9325 157.377 22.2559 157.073 22.6559 156.86C23.0625 156.647 23.5159 156.54 24.0159 156.54C24.4692 156.54 24.8692 156.633 25.2159 156.82C25.5625 157 25.8325 157.283 26.0259 157.67C26.2192 158.05 26.3159 158.54 26.3159 159.14C26.3159 159.733 26.2192 160.223 26.0259 160.61C25.8325 160.99 25.5625 161.273 25.2159 161.46C24.8692 161.647 24.4692 161.74 24.0159 161.74ZM24.3259 160.46C24.5992 160.46 24.8425 160.407 25.0559 160.3C25.2692 160.187 25.4359 160.03 25.5559 159.83C25.6759 159.63 25.7359 159.4 25.7359 159.14C25.7359 158.873 25.6759 158.643 25.5559 158.45C25.4359 158.25 25.2692 158.097 25.0559 157.99C24.8425 157.877 24.5992 157.82 24.3259 157.82C24.0525 157.82 23.8092 157.877 23.5959 157.99C23.3825 158.097 23.2125 158.25 23.0859 158.45C22.9659 158.643 22.9059 158.873 22.9059 159.14C22.9059 159.4 22.9659 159.63 23.0859 159.83C23.2125 160.03 23.3825 160.187 23.5959 160.3C23.8092 160.407 24.0525 160.46 24.3259 160.46ZM30.2878 160.4L30.1978 158.53L33.5478 155H35.3478L32.3278 158.25L31.4278 159.21L30.2878 160.4ZM28.8378 162V155H30.4478V162H28.8378ZM33.6278 162L31.1378 158.95L32.1978 157.8L35.5178 162H33.6278ZM38.2341 162.08C37.7875 162.08 37.3875 161.993 37.0341 161.82C36.6875 161.647 36.4175 161.383 36.2241 161.03C36.0308 160.67 35.9341 160.213 35.9341 159.66V156.62H37.4941V159.43C37.4941 159.877 37.5875 160.207 37.7741 160.42C37.9675 160.627 38.2375 160.73 38.5841 160.73C38.8241 160.73 39.0375 160.68 39.2241 160.58C39.4108 160.473 39.5575 160.313 39.6641 160.1C39.7708 159.88 39.8241 159.607 39.8241 159.28V156.62H41.3841V162H39.9041V160.52L40.1741 160.95C39.9941 161.323 39.7275 161.607 39.3741 161.8C39.0275 161.987 38.6475 162.08 38.2341 162.08ZM45.4614 159.81V158.56H48.2914V159.81H45.4614ZM53.9609 158.15H57.3209V159.45H53.9609V158.15ZM54.0809 162H52.4609V155H57.7509V156.3H54.0809V162ZM58.7376 162V156.62H60.2976V162H58.7376ZM59.5176 155.87C59.2309 155.87 58.9976 155.787 58.8176 155.62C58.6376 155.453 58.5476 155.247 58.5476 155C58.5476 154.753 58.6376 154.547 58.8176 154.38C58.9976 154.213 59.2309 154.13 59.5176 154.13C59.8042 154.13 60.0376 154.21 60.2176 154.37C60.3976 154.523 60.4876 154.723 60.4876 154.97C60.4876 155.23 60.3976 155.447 60.2176 155.62C60.0442 155.787 59.8109 155.87 59.5176 155.87ZM65.0154 156.54C65.4421 156.54 65.8221 156.627 66.1554 156.8C66.4954 156.967 66.7621 157.227 66.9554 157.58C67.1487 157.927 67.2454 158.373 67.2454 158.92V162H65.6854V159.16C65.6854 158.727 65.5887 158.407 65.3954 158.2C65.2087 157.993 64.9421 157.89 64.5954 157.89C64.3487 157.89 64.1254 157.943 63.9254 158.05C63.7321 158.15 63.5787 158.307 63.4654 158.52C63.3587 158.733 63.3054 159.007 63.3054 159.34V162H61.7454V156.62H63.2354V158.11L62.9554 157.66C63.1487 157.3 63.4254 157.023 63.7854 156.83C64.1454 156.637 64.5554 156.54 65.0154 156.54ZM71.9595 162V160.95L71.8595 160.72V158.84C71.8595 158.507 71.7561 158.247 71.5495 158.06C71.3495 157.873 71.0395 157.78 70.6195 157.78C70.3328 157.78 70.0495 157.827 69.7695 157.92C69.4961 158.007 69.2628 158.127 69.0695 158.28L68.5095 157.19C68.8028 156.983 69.1561 156.823 69.5695 156.71C69.9828 156.597 70.4028 156.54 70.8295 156.54C71.6495 156.54 72.2861 156.733 72.7395 157.12C73.1928 157.507 73.4195 158.11 73.4195 158.93V162H71.9595ZM70.3195 162.08C69.8995 162.08 69.5395 162.01 69.2395 161.87C68.9395 161.723 68.7095 161.527 68.5495 161.28C68.3895 161.033 68.3095 160.757 68.3095 160.45C68.3095 160.13 68.3861 159.85 68.5395 159.61C68.6995 159.37 68.9495 159.183 69.2895 159.05C69.6295 158.91 70.0728 158.84 70.6195 158.84H72.0495V159.75H70.7895C70.4228 159.75 70.1695 159.81 70.0295 159.93C69.8961 160.05 69.8295 160.2 69.8295 160.38C69.8295 160.58 69.9061 160.74 70.0595 160.86C70.2195 160.973 70.4361 161.03 70.7095 161.03C70.9695 161.03 71.2028 160.97 71.4095 160.85C71.6161 160.723 71.7661 160.54 71.8595 160.3L72.0995 161.02C71.9861 161.367 71.7795 161.63 71.4795 161.81C71.1795 161.99 70.7928 162.08 70.3195 162.08ZM78.1013 156.54C78.528 156.54 78.908 156.627 79.2413 156.8C79.5813 156.967 79.848 157.227 80.0413 157.58C80.2347 157.927 80.3313 158.373 80.3313 158.92V162H78.7713V159.16C78.7713 158.727 78.6747 158.407 78.4813 158.2C78.2947 157.993 78.028 157.89 77.6813 157.89C77.4347 157.89 77.2113 157.943 77.0113 158.05C76.818 158.15 76.6647 158.307 76.5513 158.52C76.4447 158.733 76.3913 159.007 76.3913 159.34V162H74.8313V156.62H76.3213V158.11L76.0413 157.66C76.2347 157.3 76.5113 157.023 76.8713 156.83C77.2313 156.637 77.6413 156.54 78.1013 156.54ZM84.3845 162.08C83.8045 162.08 83.2878 161.963 82.8345 161.73C82.3811 161.49 82.0245 161.16 81.7645 160.74C81.5111 160.32 81.3845 159.843 81.3845 159.31C81.3845 158.77 81.5111 158.293 81.7645 157.88C82.0245 157.46 82.3811 157.133 82.8345 156.9C83.2878 156.66 83.8045 156.54 84.3845 156.54C84.9511 156.54 85.4445 156.66 85.8645 156.9C86.2845 157.133 86.5945 157.47 86.7945 157.91L85.5845 158.56C85.4445 158.307 85.2678 158.12 85.0545 158C84.8478 157.88 84.6211 157.82 84.3745 157.82C84.1078 157.82 83.8678 157.88 83.6545 158C83.4411 158.12 83.2711 158.29 83.1445 158.51C83.0245 158.73 82.9645 158.997 82.9645 159.31C82.9645 159.623 83.0245 159.89 83.1445 160.11C83.2711 160.33 83.4411 160.5 83.6545 160.62C83.8678 160.74 84.1078 160.8 84.3745 160.8C84.6211 160.8 84.8478 160.743 85.0545 160.63C85.2678 160.51 85.4445 160.32 85.5845 160.06L86.7945 160.72C86.5945 161.153 86.2845 161.49 85.8645 161.73C85.4445 161.963 84.9511 162.08 84.3845 162.08ZM87.6634 162V156.62H89.2234V162H87.6634ZM88.4434 155.87C88.1567 155.87 87.9234 155.787 87.7434 155.62C87.5634 155.453 87.4734 155.247 87.4734 155C87.4734 154.753 87.5634 154.547 87.7434 154.38C87.9234 154.213 88.1567 154.13 88.4434 154.13C88.73 154.13 88.9634 154.21 89.1434 154.37C89.3234 154.523 89.4134 154.723 89.4134 154.97C89.4134 155.23 89.3234 155.447 89.1434 155.62C88.97 155.787 88.7367 155.87 88.4434 155.87ZM93.9712 162V160.95L93.8712 160.72V158.84C93.8712 158.507 93.7678 158.247 93.5612 158.06C93.3612 157.873 93.0512 157.78 92.6312 157.78C92.3445 157.78 92.0612 157.827 91.7812 157.92C91.5078 158.007 91.2745 158.127 91.0812 158.28L90.5212 157.19C90.8145 156.983 91.1678 156.823 91.5812 156.71C91.9945 156.597 92.4145 156.54 92.8412 156.54C93.6612 156.54 94.2978 156.733 94.7512 157.12C95.2045 157.507 95.4312 158.11 95.4312 158.93V162H93.9712ZM92.3312 162.08C91.9112 162.08 91.5512 162.01 91.2512 161.87C90.9512 161.723 90.7212 161.527 90.5612 161.28C90.4012 161.033 90.3212 160.757 90.3212 160.45C90.3212 160.13 90.3978 159.85 90.5512 159.61C90.7112 159.37 90.9612 159.183 91.3012 159.05C91.6412 158.91 92.0845 158.84 92.6312 158.84H94.0612V159.75H92.8012C92.4345 159.75 92.1812 159.81 92.0412 159.93C91.9078 160.05 91.8412 160.2 91.8412 160.38C91.8412 160.58 91.9178 160.74 92.0712 160.86C92.2312 160.973 92.4478 161.03 92.7212 161.03C92.9812 161.03 93.2145 160.97 93.4212 160.85C93.6278 160.723 93.7778 160.54 93.8712 160.3L94.1112 161.02C93.9978 161.367 93.7912 161.63 93.4912 161.81C93.1912 161.99 92.8045 162.08 92.3312 162.08ZM96.843 162V154.58H98.403V162H96.843ZM102.793 162V155H104.133L107.113 159.94H106.403L109.333 155H110.663L110.683 162H109.163L109.153 157.33H109.433L107.093 161.26H106.363L103.973 157.33H104.313V162H102.793ZM115.534 162V160.95L115.434 160.72V158.84C115.434 158.507 115.33 158.247 115.124 158.06C114.924 157.873 114.614 157.78 114.194 157.78C113.907 157.78 113.624 157.827 113.344 157.92C113.07 158.007 112.837 158.127 112.644 158.28L112.084 157.19C112.377 156.983 112.73 156.823 113.144 156.71C113.557 156.597 113.977 156.54 114.404 156.54C115.224 156.54 115.86 156.733 116.314 157.12C116.767 157.507 116.994 158.11 116.994 158.93V162H115.534ZM113.894 162.08C113.474 162.08 113.114 162.01 112.814 161.87C112.514 161.723 112.284 161.527 112.124 161.28C111.964 161.033 111.884 160.757 111.884 160.45C111.884 160.13 111.96 159.85 112.114 159.61C112.274 159.37 112.524 159.183 112.864 159.05C113.204 158.91 113.647 158.84 114.194 158.84H115.624V159.75H114.364C113.997 159.75 113.744 159.81 113.604 159.93C113.47 160.05 113.404 160.2 113.404 160.38C113.404 160.58 113.48 160.74 113.634 160.86C113.794 160.973 114.01 161.03 114.284 161.03C114.544 161.03 114.777 160.97 114.984 160.85C115.19 160.723 115.34 160.54 115.434 160.3L115.674 161.02C115.56 161.367 115.354 161.63 115.054 161.81C114.754 161.99 114.367 162.08 113.894 162.08ZM121.676 156.54C122.102 156.54 122.482 156.627 122.816 156.8C123.156 156.967 123.422 157.227 123.616 157.58C123.809 157.927 123.906 158.373 123.906 158.92V162H122.346V159.16C122.346 158.727 122.249 158.407 122.056 158.2C121.869 157.993 121.602 157.89 121.256 157.89C121.009 157.89 120.786 157.943 120.586 158.05C120.392 158.15 120.239 158.307 120.126 158.52C120.019 158.733 119.966 159.007 119.966 159.34V162H118.406V156.62H119.896V158.11L119.616 157.66C119.809 157.3 120.086 157.023 120.446 156.83C120.806 156.637 121.216 156.54 121.676 156.54ZM128.62 162V160.95L128.52 160.72V158.84C128.52 158.507 128.416 158.247 128.21 158.06C128.01 157.873 127.7 157.78 127.28 157.78C126.993 157.78 126.71 157.827 126.43 157.92C126.156 158.007 125.923 158.127 125.73 158.28L125.17 157.19C125.463 156.983 125.816 156.823 126.23 156.71C126.643 156.597 127.063 156.54 127.49 156.54C128.31 156.54 128.946 156.733 129.4 157.12C129.853 157.507 130.08 158.11 130.08 158.93V162H128.62ZM126.98 162.08C126.56 162.08 126.2 162.01 125.9 161.87C125.6 161.723 125.37 161.527 125.21 161.28C125.05 161.033 124.97 160.757 124.97 160.45C124.97 160.13 125.046 159.85 125.2 159.61C125.36 159.37 125.61 159.183 125.95 159.05C126.29 158.91 126.733 158.84 127.28 158.84H128.71V159.75H127.45C127.083 159.75 126.83 159.81 126.69 159.93C126.556 160.05 126.49 160.2 126.49 160.38C126.49 160.58 126.566 160.74 126.72 160.86C126.88 160.973 127.096 161.03 127.37 161.03C127.63 161.03 127.863 160.97 128.07 160.85C128.276 160.723 128.426 160.54 128.52 160.3L128.76 161.02C128.646 161.367 128.44 161.63 128.14 161.81C127.84 161.99 127.453 162.08 126.98 162.08ZM134.061 164.02C133.554 164.02 133.064 163.957 132.591 163.83C132.124 163.71 131.734 163.527 131.421 163.28L132.041 162.16C132.267 162.347 132.554 162.493 132.901 162.6C133.254 162.713 133.601 162.77 133.941 162.77C134.494 162.77 134.894 162.647 135.141 162.4C135.394 162.153 135.521 161.787 135.521 161.3V160.49L135.621 159.14L135.601 157.78V156.62H137.081V161.1C137.081 162.1 136.821 162.837 136.301 163.31C135.781 163.783 135.034 164.02 134.061 164.02ZM133.821 161.74C133.321 161.74 132.867 161.633 132.461 161.42C132.061 161.2 131.737 160.897 131.491 160.51C131.251 160.117 131.131 159.66 131.131 159.14C131.131 158.613 131.251 158.157 131.491 157.77C131.737 157.377 132.061 157.073 132.461 156.86C132.867 156.647 133.321 156.54 133.821 156.54C134.274 156.54 134.674 156.633 135.021 156.82C135.367 157 135.637 157.283 135.831 157.67C136.024 158.05 136.121 158.54 136.121 159.14C136.121 159.733 136.024 160.223 135.831 160.61C135.637 160.99 135.367 161.273 135.021 161.46C134.674 161.647 134.274 161.74 133.821 161.74ZM134.131 160.46C134.404 160.46 134.647 160.407 134.861 160.3C135.074 160.187 135.241 160.03 135.361 159.83C135.481 159.63 135.541 159.4 135.541 159.14C135.541 158.873 135.481 158.643 135.361 158.45C135.241 158.25 135.074 158.097 134.861 157.99C134.647 157.877 134.404 157.82 134.131 157.82C133.857 157.82 133.614 157.877 133.401 157.99C133.187 158.097 133.017 158.25 132.891 158.45C132.771 158.643 132.711 158.873 132.711 159.14C132.711 159.4 132.771 159.63 132.891 159.83C133.017 160.03 133.187 160.187 133.401 160.3C133.614 160.407 133.857 160.46 134.131 160.46ZM141.203 162.08C140.589 162.08 140.049 161.96 139.583 161.72C139.123 161.48 138.766 161.153 138.513 160.74C138.259 160.32 138.133 159.843 138.133 159.31C138.133 158.77 138.256 158.293 138.503 157.88C138.756 157.46 139.099 157.133 139.533 156.9C139.966 156.66 140.456 156.54 141.003 156.54C141.529 156.54 142.003 156.653 142.423 156.88C142.849 157.1 143.186 157.42 143.433 157.84C143.679 158.253 143.803 158.75 143.803 159.33C143.803 159.39 143.799 159.46 143.793 159.54C143.786 159.613 143.779 159.683 143.773 159.75H139.403V158.84H142.952L142.353 159.11C142.353 158.83 142.296 158.587 142.183 158.38C142.069 158.173 141.913 158.013 141.713 157.9C141.513 157.78 141.279 157.72 141.013 157.72C140.746 157.72 140.509 157.78 140.303 157.9C140.103 158.013 139.946 158.177 139.833 158.39C139.719 158.597 139.663 158.843 139.663 159.13V159.37C139.663 159.663 139.726 159.923 139.853 160.15C139.986 160.37 140.169 160.54 140.403 160.66C140.643 160.773 140.923 160.83 141.243 160.83C141.529 160.83 141.779 160.787 141.993 160.7C142.213 160.613 142.413 160.483 142.593 160.31L143.423 161.21C143.176 161.49 142.866 161.707 142.493 161.86C142.119 162.007 141.689 162.08 141.203 162.08ZM151.731 156.54C152.158 156.54 152.534 156.627 152.861 156.8C153.194 156.967 153.454 157.227 153.641 157.58C153.834 157.927 153.931 158.373 153.931 158.92V162H152.371V159.16C152.371 158.727 152.281 158.407 152.101 158.2C151.921 157.993 151.668 157.89 151.341 157.89C151.114 157.89 150.911 157.943 150.731 158.05C150.551 158.15 150.411 158.303 150.311 158.51C150.211 158.717 150.161 158.98 150.161 159.3V162H148.601V159.16C148.601 158.727 148.511 158.407 148.331 158.2C148.158 157.993 147.908 157.89 147.581 157.89C147.354 157.89 147.151 157.943 146.971 158.05C146.791 158.15 146.651 158.303 146.551 158.51C146.451 158.717 146.401 158.98 146.401 159.3V162H144.841V156.62H146.331V158.09L146.051 157.66C146.238 157.293 146.501 157.017 146.841 156.83C147.188 156.637 147.581 156.54 148.021 156.54C148.514 156.54 148.944 156.667 149.311 156.92C149.684 157.167 149.931 157.547 150.051 158.06L149.501 157.91C149.681 157.49 149.968 157.157 150.361 156.91C150.761 156.663 151.218 156.54 151.731 156.54ZM158.038 162.08C157.425 162.08 156.885 161.96 156.418 161.72C155.958 161.48 155.602 161.153 155.348 160.74C155.095 160.32 154.968 159.843 154.968 159.31C154.968 158.77 155.092 158.293 155.338 157.88C155.592 157.46 155.935 157.133 156.368 156.9C156.802 156.66 157.292 156.54 157.838 156.54C158.365 156.54 158.838 156.653 159.258 156.88C159.685 157.1 160.022 157.42 160.268 157.84C160.515 158.253 160.638 158.75 160.638 159.33C160.638 159.39 160.635 159.46 160.628 159.54C160.622 159.613 160.615 159.683 160.608 159.75H156.238V158.84H159.788L159.188 159.11C159.188 158.83 159.132 158.587 159.018 158.38C158.905 158.173 158.748 158.013 158.548 157.9C158.348 157.78 158.115 157.72 157.848 157.72C157.582 157.72 157.345 157.78 157.138 157.9C156.938 158.013 156.782 158.177 156.668 158.39C156.555 158.597 156.498 158.843 156.498 159.13V159.37C156.498 159.663 156.562 159.923 156.688 160.15C156.822 160.37 157.005 160.54 157.238 160.66C157.478 160.773 157.758 160.83 158.078 160.83C158.365 160.83 158.615 160.787 158.828 160.7C159.048 160.613 159.248 160.483 159.428 160.31L160.258 161.21C160.012 161.49 159.702 161.707 159.328 161.86C158.955 162.007 158.525 162.08 158.038 162.08ZM164.947 156.54C165.374 156.54 165.754 156.627 166.087 156.8C166.427 156.967 166.694 157.227 166.887 157.58C167.08 157.927 167.177 158.373 167.177 158.92V162H165.617V159.16C165.617 158.727 165.52 158.407 165.327 158.2C165.14 157.993 164.874 157.89 164.527 157.89C164.28 157.89 164.057 157.943 163.857 158.05C163.664 158.15 163.51 158.307 163.397 158.52C163.29 158.733 163.237 159.007 163.237 159.34V162H161.677V156.62H163.167V158.11L162.887 157.66C163.08 157.3 163.357 157.023 163.717 156.83C164.077 156.637 164.487 156.54 164.947 156.54ZM170.791 162.08C170.158 162.08 169.664 161.92 169.311 161.6C168.958 161.273 168.781 160.79 168.781 160.15V155.43H170.341V160.13C170.341 160.357 170.401 160.533 170.521 160.66C170.641 160.78 170.804 160.84 171.011 160.84C171.258 160.84 171.468 160.773 171.641 160.64L172.061 161.74C171.901 161.853 171.708 161.94 171.481 162C171.261 162.053 171.031 162.08 170.791 162.08ZM167.951 157.94V156.74H171.681V157.94H167.951ZM174.959 162L178.079 155H179.679L182.809 162H181.109L178.549 155.82H179.189L176.619 162H174.959ZM176.519 160.5L176.949 159.27H180.549L180.989 160.5H176.519ZM186.605 162.08C186.152 162.08 185.755 161.98 185.415 161.78C185.075 161.58 184.808 161.277 184.615 160.87C184.428 160.457 184.335 159.937 184.335 159.31C184.335 158.677 184.425 158.157 184.605 157.75C184.785 157.343 185.045 157.04 185.385 156.84C185.725 156.64 186.132 156.54 186.605 156.54C187.112 156.54 187.565 156.657 187.965 156.89C188.372 157.117 188.692 157.437 188.925 157.85C189.165 158.263 189.285 158.75 189.285 159.31C189.285 159.877 189.165 160.367 188.925 160.78C188.692 161.193 188.372 161.513 187.965 161.74C187.565 161.967 187.112 162.08 186.605 162.08ZM183.425 163.94V156.62H184.915V157.72L184.885 159.32L184.985 160.91V163.94H183.425ZM186.335 160.8C186.595 160.8 186.825 160.74 187.025 160.62C187.232 160.5 187.395 160.33 187.515 160.11C187.642 159.883 187.705 159.617 187.705 159.31C187.705 158.997 187.642 158.73 187.515 158.51C187.395 158.29 187.232 158.12 187.025 158C186.825 157.88 186.595 157.82 186.335 157.82C186.075 157.82 185.842 157.88 185.635 158C185.428 158.12 185.265 158.29 185.145 158.51C185.025 158.73 184.965 158.997 184.965 159.31C184.965 159.617 185.025 159.883 185.145 160.11C185.265 160.33 185.428 160.5 185.635 160.62C185.842 160.74 186.075 160.8 186.335 160.8ZM193.509 162.08C193.056 162.08 192.659 161.98 192.319 161.78C191.979 161.58 191.713 161.277 191.519 160.87C191.333 160.457 191.239 159.937 191.239 159.31C191.239 158.677 191.329 158.157 191.509 157.75C191.689 157.343 191.949 157.04 192.289 156.84C192.629 156.64 193.036 156.54 193.509 156.54C194.016 156.54 194.469 156.657 194.869 156.89C195.276 157.117 195.596 157.437 195.829 157.85C196.069 158.263 196.189 158.75 196.189 159.31C196.189 159.877 196.069 160.367 195.829 160.78C195.596 161.193 195.276 161.513 194.869 161.74C194.469 161.967 194.016 162.08 193.509 162.08ZM190.329 163.94V156.62H191.819V157.72L191.789 159.32L191.889 160.91V163.94H190.329ZM193.239 160.8C193.499 160.8 193.729 160.74 193.929 160.62C194.136 160.5 194.299 160.33 194.419 160.11C194.546 159.883 194.609 159.617 194.609 159.31C194.609 158.997 194.546 158.73 194.419 158.51C194.299 158.29 194.136 158.12 193.929 158C193.729 157.88 193.499 157.82 193.239 157.82C192.979 157.82 192.746 157.88 192.539 158C192.333 158.12 192.169 158.29 192.049 158.51C191.929 158.73 191.869 158.997 191.869 159.31C191.869 159.617 191.929 159.883 192.049 160.11C192.169 160.33 192.333 160.5 192.539 160.62C192.746 160.74 192.979 160.8 193.239 160.8Z" fill="#EB2358"/>
<path d="M110.752 35.4V125H90.656V114.12C84.512 122.397 75.4667 126.536 63.52 126.536C52.9387 126.536 44.6613 123.208 38.688 116.552C32.8 109.811 29.856 100.253 29.856 87.88V35.4H50.592V87.24C50.592 94.408 52.256 99.8267 55.584 103.496C58.9973 107.08 63.6053 108.872 69.408 108.872C75.6373 108.872 80.6293 106.952 84.384 103.112C88.1387 99.1867 90.016 93.4267 90.016 85.832V35.4H110.752Z" fill="#01226B"/>
<path d="M122.94 90.25L110.72 102.99V126H89.79V35H110.72V77.51L151.02 35H174.42L136.72 75.56L176.63 126H152.06L122.94 90.25Z" fill="#F58C04"/>
<circle cx="40.5" cy="45.5" r="5.5" fill="#F58C04"/>
<circle cx="100.5" cy="45.5" r="5.5" fill="#01226B"/>
<path d="M42.05 45.975C42.05 46.2483 41.95 46.4833 41.75 46.68C41.55 46.8733 41.2617 46.9933 40.885 47.04V47.6H40.385V47.055C40.1383 47.0417 39.9033 46.9983 39.68 46.925C39.4567 46.8517 39.2767 46.7617 39.14 46.655L39.415 46.045C39.5417 46.1383 39.69 46.2167 39.86 46.28C40.03 46.3433 40.205 46.3833 40.385 46.4V45.565C40.1483 45.5083 39.9483 45.445 39.785 45.375C39.6217 45.305 39.485 45.2033 39.375 45.07C39.265 44.9333 39.21 44.7533 39.21 44.53C39.21 44.2533 39.31 44.0167 39.51 43.82C39.7133 43.62 40.005 43.4983 40.385 43.455V42.9H40.885V43.445C41.295 43.4783 41.6333 43.58 41.9 43.75L41.65 44.365C41.4 44.2217 41.145 44.135 40.885 44.105V44.955C41.1183 45.0083 41.315 45.07 41.475 45.14C41.6383 45.2067 41.775 45.3083 41.885 45.445C41.995 45.5783 42.05 45.755 42.05 45.975ZM40.015 44.49C40.015 44.5733 40.0467 44.6417 40.11 44.695C40.1733 44.7483 40.265 44.7933 40.385 44.83V44.12C40.2583 44.15 40.165 44.1983 40.105 44.265C40.045 44.3283 40.015 44.4033 40.015 44.49ZM40.885 46.38C41.005 46.3533 41.095 46.31 41.155 46.25C41.215 46.19 41.245 46.1183 41.245 46.035C41.245 45.9517 41.2133 45.8833 41.15 45.83C41.09 45.7767 41.0017 45.73 40.885 45.69V46.38Z" fill="#EB2358"/>
<path d="M102.05 45.975C102.05 46.2483 101.95 46.4833 101.75 46.68C101.55 46.8733 101.262 46.9933 100.885 47.04V47.6H100.385V47.055C100.138 47.0417 99.9033 46.9983 99.68 46.925C99.4567 46.8517 99.2767 46.7617 99.14 46.655L99.415 46.045C99.5417 46.1383 99.69 46.2167 99.86 46.28C100.03 46.3433 100.205 46.3833 100.385 46.4V45.565C100.148 45.5083 99.9483 45.445 99.785 45.375C99.6217 45.305 99.485 45.2033 99.375 45.07C99.265 44.9333 99.21 44.7533 99.21 44.53C99.21 44.2533 99.31 44.0167 99.51 43.82C99.7133 43.62 100.005 43.4983 100.385 43.455V42.9H100.885V43.445C101.295 43.4783 101.633 43.58 101.9 43.75L101.65 44.365C101.4 44.2217 101.145 44.135 100.885 44.105V44.955C101.118 45.0083 101.315 45.07 101.475 45.14C101.638 45.2067 101.775 45.3083 101.885 45.445C101.995 45.5783 102.05 45.755 102.05 45.975ZM100.015 44.49C100.015 44.5733 100.047 44.6417 100.11 44.695C100.173 44.7483 100.265 44.7933 100.385 44.83V44.12C100.258 44.15 100.165 44.1983 100.105 44.265C100.045 44.3283 100.015 44.4033 100.015 44.49ZM100.885 46.38C101.005 46.3533 101.095 46.31 101.155 46.25C101.215 46.19 101.245 46.1183 101.245 46.035C101.245 45.9517 101.213 45.8833 101.15 45.83C101.09 45.7767 101.002 45.73 100.885 45.69V46.38Z" fill="#EB2358"/>
</svg>
