<svg width="568" height="158" viewBox="0 0 568 158" fill="none" xmlns="http://www.w3.org/2000/svg">
<path d="M90.752 35.4V125H70.656V114.12C64.512 122.397 55.4667 126.536 43.52 126.536C32.9387 126.536 24.6613 123.208 18.688 116.552C12.8 109.811 9.856 100.253 9.856 87.88V35.4H30.592V87.24C30.592 94.408 32.256 99.8267 35.584 103.496C38.9973 107.08 43.6053 108.872 49.408 108.872C55.6373 108.872 60.6293 106.952 64.384 103.112C68.1387 99.1867 70.016 93.4267 70.016 85.832V35.4H90.752ZM180.479 56.136V125H161.407V117.064C156.458 123.037 149.29 126.024 139.903 126.024C133.418 126.024 127.53 124.573 122.239 121.672C117.034 118.771 112.938 114.632 109.951 109.256C106.964 103.88 105.471 97.6507 105.471 90.568C105.471 83.4853 106.964 77.256 109.951 71.88C112.938 66.504 117.034 62.3653 122.239 59.464C127.53 56.5627 133.418 55.112 139.903 55.112C148.692 55.112 155.562 57.8853 160.511 63.432V56.136H180.479ZM143.359 109.64C148.394 109.64 152.575 107.933 155.903 104.52C159.231 101.021 160.895 96.3707 160.895 90.568C160.895 84.7653 159.231 80.1573 155.903 76.744C152.575 73.2453 148.394 71.496 143.359 71.496C138.239 71.496 134.015 73.2453 130.687 76.744C127.359 80.1573 125.695 84.7653 125.695 90.568C125.695 96.3707 127.359 101.021 130.687 104.52C134.015 107.933 138.239 109.64 143.359 109.64ZM240.822 55.112C249.355 55.112 256.225 57.672 261.43 62.792C266.721 67.912 269.366 75.5067 269.366 85.576V125H249.398V88.648C249.398 83.1867 248.203 79.1333 245.814 76.488C243.425 73.7573 239.969 72.392 235.446 72.392C230.411 72.392 226.401 73.9707 223.414 77.128C220.427 80.2 218.934 84.808 218.934 90.952V125H198.966V56.136H218.038V64.2C220.683 61.2987 223.969 59.08 227.894 57.544C231.819 55.9227 236.129 55.112 240.822 55.112ZM359.256 56.136V113.48C359.256 126.109 355.971 135.496 349.4 141.64C342.829 147.784 333.229 150.856 320.6 150.856C313.944 150.856 307.629 150.045 301.656 148.424C295.683 146.803 290.733 144.456 286.808 141.384L294.744 127.048C297.645 129.437 301.315 131.315 305.752 132.68C310.189 134.131 314.627 134.856 319.064 134.856C325.976 134.856 331.053 133.277 334.296 130.12C337.624 127.048 339.288 122.355 339.288 116.04V113.096C334.083 118.813 326.829 121.672 317.528 121.672C311.213 121.672 305.411 120.307 300.12 117.576C294.915 114.76 290.776 110.835 287.704 105.8C284.632 100.765 283.096 94.9627 283.096 88.392C283.096 81.8213 284.632 76.0187 287.704 70.984C290.776 65.9493 294.915 62.0667 300.12 59.336C305.411 56.52 311.213 55.112 317.528 55.112C327.512 55.112 335.107 58.3973 340.312 64.968V56.136H359.256ZM321.496 105.288C326.787 105.288 331.096 103.752 334.424 100.68C337.837 97.5227 339.544 93.4267 339.544 88.392C339.544 83.3573 337.837 79.304 334.424 76.232C331.096 73.0747 326.787 71.496 321.496 71.496C316.205 71.496 311.853 73.0747 308.44 76.232C305.027 79.304 303.32 83.3573 303.32 88.392C303.32 93.4267 305.027 97.5227 308.44 100.68C311.853 103.752 316.205 105.288 321.496 105.288Z" fill="#01226B"/>
<path d="M427.94 90.25L415.72 102.99V126H394.79V35H415.72V77.51L456.02 35H479.42L441.72 75.56L481.63 126H457.06L427.94 90.25ZM557.892 56.06V126H538.652V117.68C535.966 120.713 532.759 123.053 529.032 124.7C525.306 126.26 521.276 127.04 516.942 127.04C507.756 127.04 500.476 124.397 495.102 119.11C489.729 113.823 487.042 105.98 487.042 95.58V56.06H507.322V92.59C507.322 103.857 512.046 109.49 521.492 109.49C526.346 109.49 530.246 107.93 533.192 104.81C536.139 101.603 537.612 96.88 537.612 90.64V56.06H557.892Z" fill="#F58C04"/>
</svg>
